<svg width="358" height="266" viewBox="0 0 358 266" fill="none" xmlns="http://www.w3.org/2000/svg">
<g id="map">
<g id="map_2">
<path id="ball1" d="M37.6085 71.0384C39.9416 71.0384 41.8335 69.1454 41.8335 66.8108C41.8335 64.4759 39.9416 62.5832 37.6085 62.5832C35.2749 62.5832 33.3831 64.4759 33.3831 66.8108C33.3831 69.1454 35.2749 71.0384 37.6085 71.0384Z" fill="#08D9D6"/>
<path id="ball2" d="M75.7797 161.422C78.1129 161.422 80.0048 159.529 80.0048 157.194C80.0048 154.859 78.1129 152.967 75.7797 152.967C73.4462 152.967 71.5547 154.859 71.5547 157.194C71.5547 159.529 73.4462 161.422 75.7797 161.422Z" fill="#08D9D6"/>
<path id="ball4" d="M237.643 70.4552C239.976 70.4552 241.868 68.5625 241.868 66.2276C241.868 63.8927 239.976 62 237.643 62C235.309 62 233.418 63.8927 233.418 66.2276C233.418 68.5625 235.309 70.4552 237.643 70.4552Z" fill="#08D9D6"/>
<path id="ball5" d="M311.946 176C314.279 176 316.171 174.107 316.171 171.772C316.171 169.437 314.279 167.545 311.946 167.545C309.612 167.545 307.721 169.437 307.721 171.772C307.721 174.107 309.612 176 311.946 176Z" fill="#08D9D6"/>
<path id="ball3" d="M173.975 131.1C176.309 131.1 178.2 129.207 178.2 126.872C178.2 124.537 176.309 122.644 173.975 122.644C171.642 122.644 169.75 124.537 169.75 126.872C169.75 129.207 171.642 131.1 173.975 131.1Z" fill="#08D9D6"/>
</g>
</g>
</svg>
